HIERARCHY
ROOT Hips
{
  OFFSET -31.5692 30.0904 122.763
  CHANNELS 6 Xposition Yposition Zposition Zrotation Xrotation Yrotation
  JOINT LeftUpLeg
  {
    OFFSET 8.64259 1.95398 -2.38835
    CHANNELS 3 Zrotation Xrotation Yrotation
    JOINT LeftLeg
    {
      OFFSET 43.7702 0 0
      CHANNELS 3 Zrotation Xrotation Yrotation
      JOINT LeftFoot
      {
        OFFSET 40.6238 0 0
        CHANNELS 3 Zrotation Xrotation Yrotation
        JOINT LeftToeBase
        {
          OFFSET 12.7242 0 0
          CHANNELS 3 Zrotation Xrotation Yrotation
          End Site
          {
            OFFSET 0 0 0
          }
        }
      }
    }
  }
  JOINT RightUpLeg
  {
    OFFSET -8.2249 1.95398 -2.59336
    CHANNELS 3 Zrotation Xrotation Yrotation
    JOINT RightLeg
    {
      OFFSET 43.5653 0 0
      CHANNELS 3 Zrotation Xrotation Yrotation
      JOINT RightFoot
      {
        OFFSET 40.6238 0 0
        CHANNELS 3 Zrotation Xrotation Yrotation
        JOINT RightToeBase
        {
          OFFSET 12.7242 0 0
          CHANNELS 3 Zrotation Xrotation Yrotation
          End Site
          {
            OFFSET 0 0 0
          }
        }
      }
    }
  }
  JOINT Spine
  {
    OFFSET 0.165834 0.87714 6.61349
    CHANNELS 3 Zrotation Xrotation Yrotation
    JOINT Spine1
    {
      OFFSET 7.38963 1.71661e-005 0
      CHANNELS 3 Zrotation Xrotation Yrotation
      JOINT Spine2
      {
        OFFSET 11.9445 1.14441e-005 0
        CHANNELS 3 Zrotation Xrotation Yrotation
        JOINT Spine3
        {
          OFFSET 14.7254 4.19617e-005 0
          CHANNELS 3 Zrotation Xrotation Yrotation
          JOINT Spine4
          {
            OFFSET 10.9679 0 0
            CHANNELS 3 Zrotation Xrotation Yrotation
            JOINT RightShoulder
            {
              OFFSET 2.46616 -1.6653 3.69651
              CHANNELS 3 Zrotation Xrotation Yrotation
              JOINT RightArm
              {
                OFFSET 13.0012 0 0
                CHANNELS 3 Zrotation Xrotation Yrotation
                JOINT RightForeArm
                {
                  OFFSET 28.7848 1.62311e-005 0
                  CHANNELS 3 Zrotation Xrotation Yrotation
                  JOINT RightHand
                  {
                    OFFSET 26.5688 1.62095e-005 0
                    CHANNELS 3 Zrotation Xrotation Yrotation
                    End Site
                    {
                      OFFSET 0 0 0
                    }
                  }
                }
              }
            }
            JOINT LeftShoulder
            {
              OFFSET 2.38034 -1.29275 -3.7523
              CHANNELS 3 Zrotation Xrotation Yrotation
              JOINT LeftArm
              {
                OFFSET 16.3182 6.07031e-005 0
                CHANNELS 3 Zrotation Xrotation Yrotation
                JOINT LeftForeArm
                {
                  OFFSET 27.0901 0 0
                  CHANNELS 3 Zrotation Xrotation Yrotation
                  JOINT LeftHand
                  {
                    OFFSET 24.5451 1.51738e-005 0
                    CHANNELS 3 Zrotation Xrotation Yrotation
                    End Site
                    {
                      OFFSET 0 0 0
                    }
                  }
                }
              }
            }
            JOINT Neck
            {
              OFFSET 5.0226 -0.0266342 0
              CHANNELS 3 Zrotation Xrotation Yrotation
              JOINT Head
              {
                OFFSET 6.69364 2.86102e-005 0
                CHANNELS 3 Zrotation Xrotation Yrotation
                End Site
                {
                  OFFSET 0 0 0
                }
              }
            }
          }
        }
      }
    }
  }
}
MOTION
Frames:	7
Frame Time:	0.0416667
8.31415 101.751 -4.66569 -102.451 -49.3246 -100.036 -173.287 -5.15343 90.4767 -11.7439 10.1601 1.21312 69.1777 5.46622 -4.06247 20.0797 -8.09634 8.62769 171.551 -6.01757 87.5547 -11.6213 -9.72184 -1.35264 65.6302 -3.47865 0.76045 29.3579 -0.934962 3.43764 0.184685 7.89742 -90.0738 11.0793 0.333431 -0.179147 -0.591651 0.325207 -0.193646 -23.1271 0.371832 -0.0706547 -3.11448 0.371837 -0.0706542 88.188 -31.1573 -109.837 37.8128 -6.27002 -4.11271 5.60578 -28.5949 -13.9397 -24.7029 -0.157801 -9.4426 -89.4962 -52.0861 79.9033 -20.6495 13.6801 -12.5487 -6.55561 16.6052 -0.0104422 8.17171 -0.7268 -16.0839 2.53059 2.37854 -1.34742 -6.43974 2.54317 0.933175 
8.30988 101.79 -4.63212 -102.54 -49.2476 -100.111 -173.304 -5.13943 90.4178 -12.0404 9.12566 1.17971 69.7785 5.21225 -6.84913 20.8276 -9.93212 13.4924 171.656 -6.18085 87.5763 -11.4076 -9.46241 -1.49063 65.8219 -3.59078 0.885528 29.0163 -0.741606 3.19654 0.224448 7.94108 -90.1163 10.9922 0.393 -0.268836 -0.678758 0.380807 -0.285885 -23.2143 0.455639 -0.138295 -3.20166 0.455631 -0.138297 88.8335 -30.4165 -108.891 38.2007 -7.02978 -4.62177 5.39535 -28.2773 -15.0479 -27.4269 -0.516564 -7.27133 -89.6833 -52.4853 79.7097 -20.6522 13.0542 -13.2208 -6.32733 17.8022 -0.01051 7.57891 -0.662672 -16.6026 3.01998 2.15292 -0.481238 -6.42293 2.19297 0.479579 
8.32156 101.823 -4.63273 -102.524 -49.2109 -100.082 -173.184 -5.11247 90.5583 -12.258 9.06104 1.07532 70.7592 5.14603 -9.72941 22.0733 -11.781 19.1487 171.691 -6.48041 87.6161 -10.8182 -9.67447 -1.53958 65.5531 -3.57077 0.714567 29.1881 -0.761408 2.9167 0.221363 7.92746 -90.0972 11.02 0.395662 -0.231222 -0.650931 0.385093 -0.248419 -23.1865 0.44687 -0.101618 -3.17388 0.446862 -0.101625 88.6486 -30.8769 -109.062 37.7759 -7.3119 -4.55622 5.51446 -28.8064 -15.2199 -27.7378 -0.588574 -7.02953 -89.406 -52.0383 80.0258 -20.8825 13.311 -13.2122 -6.44092 17.8243 -0.0105113 7.47975 -0.678591 -16.9399 3.22348 2.19297 -0.859611 -6.64264 2.29162 0.618318 
8.33607 101.849 -4.63134 -102.646 -49.1154 -100.151 -173.176 -5.16582 90.5575 -12.4792 9.19443 1.09376 70.7739 5.02525 -10.0689 22.4135 -12.0983 20.2687 171.711 -6.62663 87.6213 -10.6926 -9.57819 -1.58206 65.5223 -3.55666 0.891204 29.0218 -0.741628 3.18445 0.239907 7.92183 -90.1024 11.0186 0.430175 -0.245041 -0.652266 0.418956 -0.263729 -23.188 0.483927 -0.104417 -3.1753 0.483903 -0.104425 88.7997 -30.8826 -108.766 37.7461 -7.3936 -4.68814 5.73064 -28.4407 -14.9531 -26.6444 -0.38756 -8.00671 -89.37 -52.0557 80.0819 -20.825 13.4943 -13.2946 -6.45882 17.6511 -0.0105011 7.77938 -0.703514 -16.7292 3.25295 2.2025 -0.721497 -6.44434 2.285 0.359294 
8.33984 101.839 -4.62404 -102.787 -48.9871 -100.174 -173.073 -5.344 90.5838 -12.2033 9.08337 1.0524 70.0686 5.33136 -6.65599 21.104 -9.63286 13.2654 171.719 -6.67892 87.6618 -10.8143 -9.74254 -1.58342 65.5502 -3.55536 0.836647 29.0543 -0.727189 3.03886 0.246674 7.91834 -90.1101 11.0153 0.440017 -0.261593 -0.655598 0.428082 -0.280714 -23.1913 0.498317 -0.117244 -3.17866 0.498296 -0.11726 88.7667 -30.9395 -108.807 37.729 -7.29632 -4.58475 5.53717 -28.5821 -15.1851 -25.9944 -0.361408 -8.20408 -89.3239 -52.0531 80.1489 -21.0389 13.2184 -13.1697 -6.21293 18.0299 -0.0105235 7.95139 -0.772435 -17.2628 3.51607 2.09207 -0.681729 -6.78656 2.17593 0.136322 
8.36354 101.835 -4.62578 -102.857 -49.013 -100.243 -173.078 -5.2901 90.5632 -12.4292 9.19833 1.06007 70.4349 5.5609 -6.43289 20.0811 -10.2012 13.0308 171.707 -6.7998 87.6338 -10.6671 -9.60888 -1.59566 65.5943 -3.61415 0.987055 28.9624 -0.727008 3.24116 0.238682 7.91645 -90.1231 11.0032 0.418052 -0.285504 -0.66775 0.405111 -0.303635 -23.2034 0.484537 -0.146657 -3.19071 0.484543 -0.146664 88.8126 -30.7692 -108.787 37.8486 -7.30516 -4.48628 5.40614 -28.6616 -15.4314 -25.8573 -0.385306 -8.10846 -89.4138 -52.0926 80.0251 -20.8839 13.5184 -13.2309 -6.36879 17.601 -0.0104982 7.64188 -0.75692 -17.4878 3.5395 2.04136 -0.497565 -6.63333 2.09811 0.00867709 
8.36347 101.845 -4.63621 -102.933 -49.0423 -100.219 -172.972 -5.26051 90.6838 -12.4576 9.24893 1.01683 69.8565 5.42332 -5.30802 20.5494 -8.57663 10.3198 171.763 -6.93319 87.735 -10.5008 -9.48338 -1.5937 65.4907 -3.54733 1.03117 28.9591 -0.718592 3.20532 0.218798 7.91665 -90.1427 11.0059 0.369343 -0.319868 -0.665052 0.354925 -0.33581 -23.2005 0.448412 -0.194069 -3.18784 0.448403 -0.194067 88.7285 -30.6804 -108.987 37.931 -7.21113 -4.3928 5.39665 -28.7107 -15.2989 -26.0273 -0.402285 -8.01814 -89.4679 -52.2603 79.979 -20.7588 13.4703 -13.1045 -6.45683 17.5196 -0.0104935 7.63474 -0.729428 -17.1461 3.39925 2.07719 -0.375252 -6.4716 2.11358 -0.0342816 
